<?xml version="1.0" standalone="no"?>
<!DOCTYPE svg PUBLIC "-//W3C//DTD SVG 20010904//EN"
 "http://www.w3.org/TR/2001/REC-SVG-20010904/DTD/svg10.dtd">
<svg version="1.0" xmlns="http://www.w3.org/2000/svg"
 width="298.000000pt" height="298.000000pt" viewBox="0 0 298.000000 298.000000"
 preserveAspectRatio="xMidYMid meet">
<metadata>
Created by potrace 1.14, written by Peter Selinger 2001-2017
</metadata>
<g transform="translate(0.000000,298.000000) scale(0.100000,-0.100000)"
fill="#000000" stroke="none">
<path d="M1315 2970 c-22 -4 -62 -11 -89 -15 -184 -27 -453 -152 -620 -286
-41 -33 -164 -156 -205 -204 -135 -160 -244 -391 -292 -618 -23 -108 -32 -351
-17 -470 46 -355 234 -685 526 -921 58 -47 72 -64 73 -87 2 -33 2 -38 14 -129
5 -36 8 -68 7 -73 -4 -14 36 -82 64 -111 63 -63 143 -74 198 -25 l35 30 664 2
663 2 42 28 c24 15 51 45 63 69 21 42 22 81 6 338 -2 17 12 39 43 70 214 218
354 501 397 800 16 112 8 368 -15 477 -107 501 -459 899 -937 1059 -57 19
-128 39 -157 44 -29 6 -64 13 -78 16 -39 9 -341 12 -385 4z"/>
</g>
</svg>
